<?xml version="1.0" encoding="UTF-8"?><svg id="Calque_2" xmlns="http://www.w3.org/2000/svg" viewBox="0 0 512 512"><defs><style>.cls-1{fill:#f4f5dc;}</style></defs><g id="Calque_1-2"><path class="cls-1" d="m344,0h144c13.3,0,24,10.7,24,24v144c0,9.7-5.8,18.5-14.8,22.2s-19.3,1.7-26.2-5.2l-39-39-87,87c-9.4,9.4-24.6,9.4-33.9,0l-32-32c-9.4-9.4-9.4-24.6,0-33.9l87-87-39.1-39.1c-6.9-6.9-8.9-17.2-5.2-26.2s12.5-14.8,22.2-14.8Zm-176,512H24c-13.3,0-24-10.7-24-24v-144c0-9.7,5.8-18.5,14.8-22.2,9-3.7,19.3-1.7,26.2,5.2l39,39,87-87c9.4-9.4,24.6-9.4,33.9,0l32,32c9.4,9.4,9.4,24.6,0,33.9l-87,87,39,39c6.9,6.9,8.9,17.2,5.2,26.2s-12.5,14.8-22.2,14.8l.1.1Z"/></g></svg>