<?xml version="1.0" encoding="UTF-8"?><svg id="Calque_2" xmlns="http://www.w3.org/2000/svg" viewBox="0 0 410.77 323.67"><defs><style>.cls-1{fill:none;stroke:#8e6a8f;stroke-miterlimit:10;stroke-width:2.95px;}.cls-2{fill:#826aba;}.cls-3{fill:#c4dbf0;}.cls-4{fill:#def0fd;}.cls-5{fill:#ad81ad;}.cls-6{fill:#dfd5c8;}.cls-7{fill:#201a2e;}</style></defs><g id="OBJECTS"><path class="cls-6" d="m330.17,57.51s-1.08-9.96,12.92-8.88c0,0,2.93-9.52,13.26-10.77,11.65-1.41,15.54,7.06,16.88,8.94,0,0,18.63-4.63,20.78,10.71h-63.84Z"/><path class="cls-6" d="m12.49,112.7s.76-14.11,15.98-9.69c0,0,5.86-9.55,16.81-6.79,3.6.91,6.8,3.12,8.6,6.37,1.34,2.43,2.19,5.79,1.04,10.11H12.49Z"/><rect class="cls-6" x="97.1" y="207.96" width="55.84" height="114.66"/><rect class="cls-6" x="26.03" y="211.73" width="47.76" height="110.89"/><rect class="cls-6" x="21.01" y="211.73" width="46.82" height="6.38"/><rect class="cls-6" x="51.2" y="150.38" width="55.84" height="172.24"/><rect class="cls-6" x="120.24" y="172.78" width="42.97" height="149.84"/><polygon class="cls-6" points="388.65 178.84 337.66 178.84 337.66 187.06 342.19 187.06 342.19 198.15 327.22 198.15 327.22 127.36 290.81 127.36 290.81 323.56 383.5 323.56 383.5 187.06 388.65 187.06 388.65 178.84"/><line class="cls-1" x1="99.77" y1="106.6" x2="117.45" y2="106.6"/><line class="cls-1" x1="99.77" y1="179.73" x2="117.45" y2="179.73"/><line class="cls-1" x1="99.77" y1="141.43" x2="117.45" y2="141.43"/><rect class="cls-7" x="77.67" y="86.32" width="28.12" height="114.35"/><path class="cls-2" d="m107.22,202.1h-30.98v-117.21h30.98v117.21Zm-28.12-2.86h25.27v-111.5h-25.27s0,111.5,0,111.5Z"/><path class="cls-2" d="m89.54,103.94c-.89-.48-1.59-1.14-2.1-1.99-.51-.85-.76-1.81-.76-2.88s.25-2.03.76-2.88c.51-.85,1.21-1.51,2.1-1.99.89-.48,1.89-.72,3-.72.94,0,1.78.17,2.54.49s1.39.8,1.91,1.42l-1.6,1.48c-.73-.84-1.64-1.27-2.72-1.27-.67,0-1.27.15-1.79.44-.52.29-.93.7-1.23,1.23-.29.52-.44,1.12-.44,1.79s.15,1.27.44,1.79c.29.52.7.93,1.23,1.23.52.29,1.12.44,1.79.44,1.08,0,1.99-.43,2.72-1.28l1.6,1.48c-.51.63-1.15,1.11-1.91,1.44s-1.61.49-2.55.49c-1.1,0-2.1-.24-2.99-.72Z"/><path class="cls-2" d="m90.48,111.26h2.5v10.8h-2.5v-10.8Z"/><path class="cls-2" d="m96.68,128.85v10.8h-2.05l-5.39-6.56v6.56h-2.47v-10.8h2.07l5.37,6.56v-6.56h2.47Z"/><path class="cls-2" d="m96.2,155.24v2.01h-8.36v-10.8h8.16v2.01h-5.68v2.34h5.01v1.94h-5.01v2.5h5.88Z"/><path class="cls-2" d="m95.47,174.83l-.02-6.48-3.18,5.34h-1.13l-3.16-5.2v6.34h-2.35v-10.8h2.07l4.04,6.71,3.98-6.71h2.05l.03,10.8h-2.35Z"/><path class="cls-2" d="m94.21,190.11h-5.01l-.96,2.31h-2.56l4.81-10.8h2.47l4.83,10.8h-2.62l-.96-2.31Zm-.79-1.9l-1.71-4.14-1.71,4.14h3.43Z"/><rect class="cls-7" x="147.5" y="31.47" width="120.48" height="19.48"/><circle class="cls-7" cx="207.74" cy="52.4" r="52.41"/><path class="cls-3" d="m174.69,30.7s10.53-21.19,32.88-21.19,33.22,21.19,33.22,21.19h-66.1Z"/><polygon class="cls-4" points="200.22 30.7 195.64 29.72 208.63 8.68 213.3 9.5 200.22 30.7"/><polygon class="cls-4" points="205.72 31.47 203.22 29.93 215.76 9.95 218.26 11.5 205.72 31.47"/><path class="cls-2" d="m243.17,32.15h-70.82l1.04-2.1c.11-.22,11.2-22,34.18-22s34.05,21.09,34.51,21.99l1.09,2.12h0Zm-65.95-2.91h60.99c-3.41-5.22-13.63-18.28-30.65-18.28s-27.05,13.08-30.35,18.28h0Z"/><rect class="cls-2" x="206.11" y="9.5" width="2.91" height="21.19"/><rect class="cls-7" x="117.45" y="42.74" width="180.57" height="279.52"/><rect class="cls-2" x="117.45" y="46.23" width="180.57" height="9.44"/><rect class="cls-2" x="117.45" y="37.71" width="180.57" height="5.03"/><rect class="cls-6" x="117.45" y="146.6" width="180.57" height="3.81"/><rect class="cls-6" x="117.45" y="230.82" width="180.57" height="3.81"/><rect class="cls-3" x="248.67" y="77.06" width="23.66" height="48.74"/><polygon class="cls-4" points="250.55 113.17 248.45 108.18 268.37 75.9 272.12 78.22 250.55 113.17"/><rect class="cls-4" x="238.1" y="103.08" width="44.54" height="2.94" transform="translate(34.6 271.14) rotate(-58.3)"/><rect class="cls-5" x="243.49" y="127.27" width="33.53" height="5.77"/><rect class="cls-6" x="243.49" y="133.04" width="33.53" height="3.7"/><path class="cls-2" d="m273.79,127.26h-26.57v-51.65h26.57v51.65Zm-23.66-2.91h20.75v-45.83h-20.75v45.83Z"/><rect class="cls-2" x="248.67" y="99.98" width="23.66" height="2.91"/><rect class="cls-3" x="195.99" y="77.06" width="23.66" height="48.74"/><polygon class="cls-4" points="197.86 113.17 195.76 108.18 215.69 75.9 219.44 78.22 197.86 113.17"/><rect class="cls-4" x="185.41" y="103.09" width="44.54" height="2.94" transform="translate(9.59 226.31) rotate(-58.3)"/><rect class="cls-5" x="190.8" y="127.27" width="33.53" height="5.77"/><rect class="cls-6" x="190.8" y="133.04" width="33.53" height="3.7"/><path class="cls-2" d="m221.1,127.26h-26.57v-51.65h26.57v51.65Zm-23.66-2.91h20.75v-45.83h-20.75v45.83Z"/><rect class="cls-2" x="195.99" y="99.98" width="23.66" height="2.91"/><rect class="cls-3" x="143.3" y="77.06" width="23.66" height="48.74"/><polygon class="cls-4" points="145.18 113.17 143.08 108.18 163 75.9 166.75 78.22 145.18 113.17"/><rect class="cls-4" x="132.73" y="103.08" width="44.54" height="2.94" transform="translate(-15.4 181.49) rotate(-58.3)"/><rect class="cls-5" x="138.12" y="127.27" width="33.53" height="5.77"/><rect class="cls-6" x="138.12" y="133.04" width="33.53" height="3.7"/><path class="cls-2" d="m168.42,127.26h-26.57v-51.65h26.57v51.65h0Zm-23.66-2.91h20.75v-45.83h-20.75v45.83Z"/><rect class="cls-2" x="143.3" y="99.98" width="23.66" height="2.91"/><rect class="cls-3" x="248.67" y="162.06" width="23.66" height="48.74"/><polygon class="cls-4" points="250.55 198.17 248.45 193.17 268.37 160.9 272.12 163.22 250.55 198.17"/><rect class="cls-4" x="238.1" y="188.08" width="44.54" height="2.94" transform="translate(-37.72 311.47) rotate(-58.3)"/><rect class="cls-5" x="243.49" y="212.27" width="33.53" height="5.77"/><rect class="cls-6" x="243.49" y="218.04" width="33.53" height="3.7"/><path class="cls-2" d="m273.79,212.26h-26.57v-51.65h26.57v51.65h0Zm-23.66-2.91h20.75v-45.83h-20.75v45.83Z"/><rect class="cls-2" x="248.67" y="184.97" width="23.66" height="2.91"/><rect class="cls-3" x="195.99" y="162.06" width="23.66" height="48.74"/><polygon class="cls-4" points="197.86 198.17 195.76 193.17 215.69 160.9 219.44 163.22 197.86 198.17"/><rect class="cls-4" x="185.41" y="188.09" width="44.54" height="2.94" transform="translate(-62.73 266.65) rotate(-58.3)"/><rect class="cls-5" x="190.8" y="212.27" width="33.53" height="5.77"/><rect class="cls-6" x="190.8" y="218.04" width="33.53" height="3.7"/><path class="cls-2" d="m221.1,212.26h-26.57v-51.65h26.57v51.65h0Zm-23.66-2.91h20.75v-45.83h-20.75v45.83Z"/><rect class="cls-2" x="195.99" y="184.97" width="23.66" height="2.91"/><rect class="cls-3" x="143.3" y="162.06" width="23.66" height="48.74"/><polygon class="cls-4" points="145.18 198.17 143.08 193.17 163 160.9 166.75 163.22 145.18 198.17"/><rect class="cls-4" x="132.73" y="188.08" width="44.54" height="2.94" transform="translate(-87.72 221.82) rotate(-58.3)"/><rect class="cls-5" x="138.12" y="212.27" width="33.53" height="5.77"/><rect class="cls-6" x="138.12" y="218.04" width="33.53" height="3.7"/><path class="cls-2" d="m168.42,212.26h-26.57v-51.65h26.57v51.65h0Zm-23.66-2.91h20.75v-45.83h-20.75v45.83Z"/><rect class="cls-2" x="143.3" y="184.97" width="23.66" height="2.91"/><rect class="cls-5" x="155.08" y="251.34" width="104.99" height="70.92"/><circle class="cls-5" cx="207.59" cy="257.01" r="19.68" transform="translate(-90.53 399.39) rotate(-76.6)"/><rect class="cls-2" x="164.04" y="259.99" width="87.08" height="62.27"/><polygon class="cls-7" points="207.58 242.56 209.17 246.37 213.28 246.7 210.15 249.39 211.1 253.41 207.58 251.26 204.05 253.41 205.01 249.39 201.88 246.7 205.99 246.37 207.58 242.56"/><path class="cls-5" d="m200.53,289.5c0,1.2-.97,2.16-2.16,2.16s-2.16-.97-2.16-2.16.97-2.16,2.16-2.16,2.16.97,2.16,2.16Z"/><path class="cls-5" d="m218.95,289.5c0,1.2-.97,2.16-2.16,2.16s-2.16-.97-2.16-2.16.97-2.16,2.16-2.16,2.16.97,2.16,2.16Z"/><path class="cls-7" d="m362.46,256.99c0-5.8-1.84-11.14-4.93-15.42-1.07-1.48-1.51-3.28-1.28-5.09.12-.97.19-1.97.19-2.98,0-11.66-8.07-21.12-18.03-21.12s-18.03,9.46-18.03,21.12c0,1.01.06,2.01.19,2.98.23,1.81-.22,3.61-1.28,5.09-3.09,4.28-4.93,9.62-4.93,15.42s1.73,10.79,4.64,15c1.05,1.52,1.55,3.34,1.44,5.19-.03.49-.05.99-.05,1.49,0,11.66,8.07,21.12,18.03,21.12s18.03-9.46,18.03-21.12c0-.5-.02-1-.05-1.49-.11-1.85.38-3.66,1.44-5.19,2.91-4.21,4.64-9.38,4.64-15h-.02Z"/><rect class="cls-2" x="336.39" y="233.88" width="2" height="87.66"/><rect class="cls-2" x="332.29" y="244.12" width="1.99" height="12.57" transform="translate(-82.56 279.64) rotate(-40.94)"/><rect class="cls-2" x="335.27" y="265.53" width="14.5" height="1.99" transform="translate(-88.18 319.96) rotate(-44.96)"/><path class="cls-7" d="m100.84,256.99c0-5.8-1.84-11.14-4.93-15.42-1.07-1.48-1.51-3.28-1.28-5.09.12-.97.19-1.97.19-2.98,0-11.66-8.07-21.12-18.03-21.12s-18.03,9.46-18.03,21.12c0,1.01.06,2.01.19,2.98.23,1.81-.22,3.61-1.28,5.09-3.09,4.28-4.93,9.62-4.93,15.42s1.73,10.79,4.64,15c1.05,1.52,1.55,3.34,1.44,5.19-.03.49-.05.99-.05,1.49,0,11.66,8.07,21.12,18.03,21.12s18.03-9.46,18.03-21.12c0-.5-.02-1-.05-1.49-.11-1.85.38-3.66,1.44-5.19,2.91-4.21,4.64-9.38,4.64-15h-.02Z"/><rect class="cls-2" x="74.77" y="233.88" width="2" height="87.66"/><rect class="cls-2" x="70.65" y="244.12" width="1.99" height="12.57" transform="translate(-146.55 108.2) rotate(-40.94)"/><rect class="cls-2" x="73.65" y="265.49" width="14.5" height="1.99" transform="translate(-164.67 135.13) rotate(-44.97)"/><rect class="cls-2" y="320.85" width="410.77" height="2.82"/></g></svg>